<?xml version="1.0" encoding="UTF-8"?><svg xmlns="http://www.w3.org/2000/svg" xml:space="preserve" width="30px" height="30px" version="1.1" style="shape-rendering:geometricPrecision; text-rendering:geometricPrecision; image-rendering:optimizeQuality; fill-rule:evenodd; clip-rule:evenodd" viewBox="0 0 30000 30000" xmlns:xlink="http://www.w3.org/1999/xlink"><path fill="#acacac" d="M25613 29792l2563 0 0 -27022 0 -2562 -2563 0 -15155 0 -2563 0 0 2562 0 5126 2563 0 0 -5126 15155 0 0 24461 -15155 0 0 -5126 -2563 0 0 5126 0 2562 2563 0 15155 0zm-23790 -16088l15879 0 -4402 -4206 1950 -1950 6981 7368 39 0 0 43 0 83 -7020 7410 -1950 -1950 4402 -4206 -15879 0 0 -28 0 -2535 0 -28z"/></svg>