<?xml version="1.0" encoding="UTF-8"?>
<!DOCTYPE svg PUBLIC "-//W3C//DTD SVG 1.1//EN" "http://www.w3.org/Graphics/SVG/1.1/DTD/svg11.dtd">
<!-- Creator: CorelDRAW X6 -->
<svg xmlns="http://www.w3.org/2000/svg" xml:space="preserve" width="293px" height="57px" version="1.1" style="shape-rendering:geometricPrecision; text-rendering:geometricPrecision; image-rendering:optimizeQuality; fill-rule:evenodd; clip-rule:evenodd"
viewBox="0 0 293000 57000"
 xmlns:xlink="http://www.w3.org/1999/xlink">
 <defs>
  <style type="text/css">
   <![CDATA[
    .fil0 {fill:#D7D7D7}
   ]]>
  </style>
 </defs>
 <g id="Layer_x0020_1">
  <metadata id="CorelCorpID_0Corel-Layer"/>
  <path class="fil0" d="M46087 9808l-10684 0c-697,2434 -1996,5254 -2937,7677 -698,1795 -8114,21339 -8937,22295l-11706 -29972 -10655 0 0 3304c782,86 1518,181 2334,324 117,20 983,223 1039,249 776,348 356,-53 788,631l-1 28008c-162,630 -894,768 -1817,921 -757,128 -1557,228 -2343,321l0 3265 13329 -1 -2 -3217 -4024 -720 -561 -25159c61,67 130,164 167,219l823 1591c270,679 455,1152 730,1831 495,1217 952,2340 1488,3659 2448,6027 6963,16567 8751,21799 3596,0 3339,354 4136,-1688l5170 -12856c1039,-2552 2024,-4984 3066,-7550 997,-2453 1735,-5251 3050,-7290l-410 25425 -4121 704 -1 3255 13329 0 -7 -3214 -4136 -780 48 -29055 4095 -681 1 -3292zm12991 0l-5027 0 0 5171 5028 -45 -1 -5126zm-9190 11911l25 1257 4137 680 1 19297 -4139 703 -25 3194 13192 0c243,-3404 816,-3325 -4000,-3845l-1 -23399c-2395,-353 -6600,-150 -9190,-141l0 2254zm206634 1592l-423 -3840 -8665 -6 60 3389 3909 678c586,2036 193,16154 193,19420l-4140 704 -26 3194 13334 0c0,-3399 835,-3252 -4141,-3845 1,-4522 1,-9046 -14,-13569 -25,-6771 6352,-4997 8303,-5676l593 -4480c-7155,967 -4765,315 -8984,4031zm-56181 -3966l-4354 149 0 3821 4342 76c231,14236 -3509,27038 11503,22882l-598 -3464c-6389,-885 -6071,4507 -5838,-19367l5198 -93 -1 -3882 -5210 -74 1 -6846 -5042 0 -1 6800zm-128198 18800l-3804 40 11 6035c3279,2933 10990,3935 15868,1872 5138,-2173 7184,-8952 1926,-12358 -5503,-3566 -13510,-1967 -13042,-7139 255,-2818 3326,-3764 6317,-3459 3881,397 4328,1522 5115,5021l3821 0c-182,-4792 815,-6021 -3104,-7704 -14445,-6204 -26137,9783 -8389,14208 2983,743 6536,1174 7134,3865 800,3602 -2883,4811 -6111,4678 -4747,-193 -4806,-1017 -5741,-5059zm26382 0l-3804 40 12 6037c3273,2921 10983,3957 15868,1870 5134,-2193 7189,-8952 1925,-12357 -5484,-3546 -13510,-1977 -13042,-7139 255,-2822 3325,-3764 6317,-3459 3868,394 4335,1521 5113,5020l3819 1c-176,-4796 819,-6020 -3099,-7704 -14397,-6190 -26176,9731 -8389,14208 2981,751 6535,1165 7134,3865 798,3600 -2882,4811 -6111,4678 -4745,-193 -4809,-1016 -5741,-5059zm66221 -15121c2845,493 2489,193 2444,3188 -137,9216 -1659,21155 9787,20941 5363,-100 6965,-3725 7824,-4005l289 3935 7687 69 1 -3619 -3102 -687 -60 -23380 -8728 41 53 3312c4775,1091 3657,-2026 3656,15319 0,3220 -3601,5217 -7289,5072 -4313,-169 -5081,-3361 -5081,-7648l0 -16096 -7478 0 -2 3559zm50112 -1305c0,3063 3183,-416 3189,3506 9,5218 -638,13610 1349,17473 2409,4684 8772,5598 12992,3246 1354,-755 2865,-2672 3246,-2796l288 3935 7690 69 -2 -3617 -3102 -690 -58 -23380 -8731 40 54 3314c4775,1081 3657,-2006 3657,15318 0,3217 -3599,5217 -7290,5072 -4317,-169 -5081,-3360 -5081,-7648l0 -16097 -8202 1 0 2254zm-53448 -11911l-28655 0 0 3276 4149 689 14 29035 -4128 866 -40 3176 13335 0 -6 -3224 -4140 -676 9 -12447 14334 -50 1 -3809 -14342 -107 7 -12775 14701 -34 493 4925 4191 31 77 -8876zm130422 24138l0 -4814c-969,-2167 -1154,-10501 -11907,-9977 -12163,593 -15411,19474 -5568,26167 2379,1618 5693,2079 9040,1736 3767,-385 5186,-1669 7550,-3004 -338,-1186 -1148,-2593 -2011,-3389 -1637,921 -2106,1675 -4592,2232 -1834,411 -4064,495 -5780,-168 -2864,-1106 -4858,-4501 -4658,-8713l17927 -72zm-17797 -3856l12690 0c-78,-4191 -1863,-7022 -6148,-7005 -3827,14 -6044,3337 -6542,7005z"/>
 </g>
</svg>
