<?xml version="1.0" encoding="UTF-8"?>
<!DOCTYPE svg PUBLIC "-//W3C//DTD SVG 1.1//EN" "http://www.w3.org/Graphics/SVG/1.1/DTD/svg11.dtd">
<!-- Creator: CorelDRAW X6 -->
<svg xmlns="http://www.w3.org/2000/svg" xml:space="preserve" width="512px" height="512px" version="1.1" style="shape-rendering:geometricPrecision; text-rendering:geometricPrecision; image-rendering:optimizeQuality; fill-rule:evenodd; clip-rule:evenodd"
viewBox="0 0 512000 512000"
 xmlns:xlink="http://www.w3.org/1999/xlink">
 <defs>
  <style type="text/css">
   <![CDATA[
    .fil0 {fill:#CCCCCC}
   ]]>
  </style>
 </defs>
 <g id="Layer_x0020_1">
  <metadata id="CorelCorpID_0Corel-Layer"/>
  <path id="Layer_x0020_1_0" class="fil0" d="M256000 3654c139368,0 252346,112978 252346,252346 0,139368 -112978,252346 -252346,252346 -139368,0 -252346,-112978 -252346,-252346 0,-139368 112978,-252346 252346,-252346zm-115455 136630l56 41708c462,1961 2589,1505 4544,1572 32262,1098 56519,7974 84681,23185 9169,4951 17019,10631 25103,16840 1128,869 2177,1825 3354,2744l3150 2707c4107,3318 11519,10710 15348,14891 9632,10513 17888,22088 25140,34630 8885,15372 15976,34321 20157,52048 1541,6530 2750,13535 3534,20367 412,3651 770,7313 967,11050 124,2294 74,10057 641,11476 425,136 888,283 1499,283l40696 0c1437,0 1962,-105 2073,-1499 276,-3379 -1148,-20725 -1493,-23955 -4798,-45069 -22772,-88935 -50753,-123441l-13511 -15515c-2244,-2558 -4693,-4896 -7172,-7226 -634,-599 -1153,-999 -1819,-1598 -703,-641 -1097,-1195 -1825,-1819l-11709 -10008c-24931,-20187 -55681,-35869 -87154,-43570 -17802,-4359 -34290,-6944 -53430,-6944 -1683,0 -2078,364 -2078,2072zm28099 170983c-16469,1480 -29542,15514 -27964,33926 1401,16267 15558,30012 33625,28211 16008,-1597 29147,-16025 27526,-34068 -1449,-16132 -15391,-29672 -33187,-28069zm-28161 -90489l-6 40253c-19,3083 821,2435 5069,2435 13546,0 32452,5822 42664,11242 13029,6912 14639,8811 23808,16433 6326,5259 14195,14978 18640,21853 3354,5186 6758,11493 9324,17759 4310,10544 6906,20792 7873,32410 180,2133 278,4235 346,6418 136,4483 -142,4206 5395,4082l34142 7c3576,80 5124,665 5124,-1893 0,-31960 -11086,-63012 -27926,-87696 -3552,-5204 -8405,-11371 -12808,-15964 -850,-888 -1393,-1763 -2287,-2596 -2862,-2670 -7191,-7325 -9854,-9422 -592,-469 -654,-593 -1277,-1154 -506,-456 -875,-666 -1350,-1097 -1702,-1560 -3465,-2849 -5267,-4248 -24060,-18640 -53577,-29647 -84353,-31171 -1553,-73 -3354,-203 -4890,-191 -2016,13 -2368,599 -2368,2541zm115518 -207419c134004,0 242641,108637 242641,242641 0,134004 -108637,242641 -242641,242641 -134004,0 -242641,-108637 -242641,-242641 0,-134004 108637,-242641 242641,-242641z"/>
 </g>
</svg>
